<svg xmlns="http://www.w3.org/2000/svg" viewBox="0 0 1647.09 355.82">
  <defs>
    <style>
      .cls-1 {
        fill: #6b7280;
      }
    </style>
  </defs>
  <g id="Слой_2" data-name="Слой 2">
    <g id="logo_white" data-name="logo white">
      <g id="text">
        <g id="_2" data-name="2">
          <path class="cls-1" d="M541.94,293.26H525.58L507,266.84l-.19,26.42H493.54V221.63h20.71q15.69,0,22.46,8.81a22.23,22.23,0,0,1,4.45,13.94,23,23,0,0,1-5.32,15.2,20.14,20.14,0,0,1-14,7.26Zm-14-48.1q0-6.69-5.42-9.2a18.45,18.45,0,0,0-7.84-1.45H506.8V255.8h7.84a18.54,18.54,0,0,0,7.74-1.35Q527.9,251.93,527.9,245.16Z"/>
          <path class="cls-1" d="M596,293.26H583.08V264.81q0-8.15-3.49-11.81a9.45,9.45,0,0,0-7.26-2.91q-6.87,0-9.49,5.52a21.43,21.43,0,0,0-1.64,9.2v28.45H548.32V221.63H561.2V243.7a14.68,14.68,0,0,1,6.48-4.5,22.46,22.46,0,0,1,7.36-1.3q9.48,0,15.2,6.38T596,261.9Z"/>
          <path class="cls-1" d="M660.22,266.47v1.44a31.63,31.63,0,0,1-.29,4.25h-42a13.65,13.65,0,0,0,5.08,7.68,14.54,14.54,0,0,0,9,2.87,18.37,18.37,0,0,0,6.29-1,14,14,0,0,0,5.71-3.89h14.52a27.11,27.11,0,0,1-10.6,12.75,28.58,28.58,0,0,1-15.44,4.38q-13.35,0-21.39-9.46a27.92,27.92,0,0,1-7-18.61,28.94,28.94,0,0,1,7-19q8.13-9.84,21.59-9.84,12.2,0,19.89,8.16T660.22,266.47Zm-13.45-5.73a13.66,13.66,0,0,0-5.23-7.77,14.89,14.89,0,0,0-8.9-2.78,15.47,15.47,0,0,0-9.25,2.88,15.19,15.19,0,0,0-5.66,7.67Z"/>
          <path class="cls-1" d="M681.23,233.44H668.35V221.63h12.88Zm0,59.82H668.35V239.64h12.88Z"/>
          <path class="cls-1" d="M739.21,293.26H726.34V264.81q0-8.15-3.49-11.81a9.45,9.45,0,0,0-7.26-2.91q-6.87,0-9.49,5.52a21.43,21.43,0,0,0-1.64,9.2v28.45H691.58V239.64h11.81v4.93a21.69,21.69,0,0,1,4.84-4.1A20,20,0,0,1,718.3,238q9.48,0,15.2,6.38T739.21,262Z"/>
          <path class="cls-1" d="M778.22,267.1H751.31v-9.43h26.91Z"/>
          <path class="cls-1" d="M865.63,293.26H852.36V239.64l-18.1,53.62H823l-18.11-53.62v53.62H791.67V221.63h18l19,54.79,19-54.79h18Z"/>
          <path class="cls-1" d="M930.87,293.26H919.06V286a21.37,21.37,0,0,1-7.89,6.61,22.93,22.93,0,0,1-10.21,2.3,24.86,24.86,0,0,1-18.2-7.52q-8-8-8-20.46t7.7-20.69A24.87,24.87,0,0,1,901.34,238q11.63,0,17.52,9.2l.2-7.55h11.81Zm-12.1-26.91a16.48,16.48,0,0,0-4.21-11.59,14.48,14.48,0,0,0-11.18-4.57,14.91,14.91,0,0,0-11.33,4.71,16.83,16.83,0,0,0-4.45,12,15.47,15.47,0,0,0,4.4,11.31,15.28,15.28,0,0,0,11.38,4.47,14.57,14.57,0,0,0,11.13-4.52Q918.77,273.68,918.77,266.35Z"/>
          <path class="cls-1" d="M954.2,233.44H941.32V221.63H954.2Zm0,59.82H941.32V239.64H954.2Z"/>
          <path class="cls-1" d="M1012.18,293.26H999.3V264.81q0-8.15-3.48-11.81a9.45,9.45,0,0,0-7.26-2.91q-6.88,0-9.49,5.52a21.28,21.28,0,0,0-1.64,9.2v28.45H964.55V239.64h11.81v4.93a21.47,21.47,0,0,1,4.84-4.1A20,20,0,0,1,991.27,238q9.48,0,15.19,6.38t5.72,17.59Z"/>
        </g>
        <g id="_1" data-name="1">
          <path class="cls-1" d="M578.92,105.47c0,23.57-18,40.1-40.93,40.1H522.77v37h-29.3V65.36H538C560.91,65.36,578.92,81.9,578.92,105.47Zm-29.3,0c0-7.2-5.08-12.11-11.63-12.11H522.77v24.39H538C544.54,117.75,549.62,112.67,549.62,105.47Z"/>
          <path class="cls-1" d="M619.68,93.68V114h36.63V142.3H619.68v40.25h-29.3V65.36h68.75V93.68Z"/>
          <path class="cls-1" d="M737.35,154v28.31H670.23V65.22h29.3V154Z"/>
          <path class="cls-1" d="M819.56,155.05v27.5H749.17V65.36h70.57v27.5H778.47v17.21h38.18v26H778.47v19Z"/>
          <path class="cls-1" d="M946.13,116.93v65.62h-26V168.66c-7.53,8.84-18.83,13.75-33.89,13.75-32.57,0-56.47-26-56.47-59.75s25-59.75,59.75-59.75c21,0,39.31,10.5,49.3,25.69a48.86,48.86,0,0,1,7,16.54H915.2c-3.77-7.69-13.43-13.58-25.54-13.58-18.66,0-30.78,12.76-30.78,31.1,0,20,12.61,32.74,30.62,32.74,12.6,0,21.44-4.91,25.7-14.08H890.48V116.93Z"/>
          <path class="cls-1" d="M1032.57,155.05v27.5H962.18V65.36h70.57v27.5H991.48v17.21h38.18v26H991.48v19Z"/>
          <path class="cls-1" d="M1161.15,116.93v65.62h-26V168.66c-7.53,8.84-18.82,13.75-33.88,13.75-32.58,0-56.48-26-56.48-59.75s25-59.75,59.75-59.75c28,0,51.24,18.66,56.31,42.23h-30.61c-3.77-7.69-13.42-13.58-25.54-13.58-18.66,0-30.77,12.76-30.77,31.1,0,20,12.6,32.74,30.61,32.74,12.6,0,21.44-4.91,25.7-14.08h-24.72V116.93Z"/>
          <path class="cls-1" d="M1214.68,143h-8.18v39.59h-29.3V65.36h44.19c23.25,0,41.26,16.54,41.26,39.62,0,14.08-7.53,25.86-19.32,32.41l31.59,45.16h-33.06Zm-8.18-25.54h14.89c6.88.16,11.95-4.75,11.95-12.44,0-7.53-5.07-12.61-11.95-12.61H1206.5Z"/>
          <path class="cls-1" d="M1276.56,144.76V65.36h29.3v75c0,8.67,4.1,13.58,14.08,13.58S1334,149,1334,140.34v-75h29.3v79.4c0,24.55-19,37.65-43.38,37.65S1276.56,169.31,1276.56,144.76Z"/>
          <path class="cls-1" d="M1465.14,105.47c0,23.57-18,40.1-40.92,40.1H1409v37h-29.3V65.36h44.53C1447.14,65.36,1465.14,81.9,1465.14,105.47Zm-29.3,0c0-7.2-5.07-12.11-11.62-12.11H1409v24.39h15.23C1430.77,117.75,1435.84,112.67,1435.84,105.47Z"/>
          <path class="cls-1" d="M1563.05,105.47c0,23.57-18,40.1-40.92,40.1h-15.22v37H1477.6V65.36h44.53C1545.05,65.36,1563.05,81.9,1563.05,105.47Zm-29.3,0c0-7.2-5.07-12.11-11.62-12.11h-15.22v24.39h15.22C1528.68,117.75,1533.75,112.67,1533.75,105.47Z"/>
          <path class="cls-1" d="M1646.91,155.05v27.5h-70.39V65.36h70.57v27.5h-41.27v17.21H1644v26h-38.17v19Z"/>
        </g>
      </g>
      <g id="icon">
        <path id="Рука" class="cls-1" d="M379,60.91l-.49-.78-.46.79a92.12,92.12,0,0,0-10.52,27c-3.7,16.73.14,38.74.49,41.08a76.87,76.87,0,0,1,.9,11.74,64.29,64.29,0,0,1-1,12.53c-3.17,16-12,27.11-23,35.88-7.7,6.18-17,9.83-26.56,12,0,0-4.24,1.33-4.33-2.21-.07-2.82,7.28-5.51,7.36-5.54,18.25-5.72,31.68-19.37,38-37.52,2.13-6.16,2.4-13.21,2.4-19.78a58.66,58.66,0,0,0-1.91-14.87l-.65-2.52-.44,2.56a60.09,60.09,0,0,1-32.84,43.9c-.43.2-2.07,1-2.5,1.22a132.76,132.76,0,0,0-35.33,25l-.24.23c-2.84,2.77-5.53,5.61-8,8.46a139.25,139.25,0,0,0-10.61,13.85c-9,13.35-17.62,32.44-19.54,43.59A144,144,0,0,0,247,281.87a92.29,92.29,0,0,0,7.75,37.19l.72,1.63.34-1.75c7.2-78.36,94.8-76.22,125.17-121.4,11.17-16.62,14.85-33.79,16.35-43,1.22-7.56,1.36-17.08,1.36-24.81A129.38,129.38,0,0,0,379,60.91Z"/>
        <path class="cls-1" d="M374,54a127.78,127.78,0,0,0-172.4-34.33,5.3,5.3,0,0,1-2.89.82,5.73,5.73,0,0,1-3-.9q-4.5-2.84-9.18-5.26l-.57-.3q-4.87-2.51-9.92-4.56A127.71,127.71,0,0,0,0,127.72c0,29.9,12.38,61.47,29.71,81.89S158.27,339.22,158.27,339.22a56.69,56.69,0,0,0,80.17,0l11.2-11.2-.18-.36a98,98,0,0,1-6.65-71.49l.61-2.1c-8.42,11.12-18.32,20-30.21,31-9.51,9-20.69,8-29.13-.22L82.85,186.45c-4.67-5.08-8.23-9.86-12-14.84a70.17,70.17,0,0,1-14.49-42.94c0-2.22.1-4.42.31-6.58a71,71,0,0,1,70.56-64.28,70,70,0,0,1,31.7,7.47c5.35,2.67,18.85,13.71,19,13.86a32.86,32.86,0,0,0,41.26-.45c.1-.08,6-4.91,11.53-9a60.66,60.66,0,0,1,7.5-4.88l.31-.17a70.09,70.09,0,0,1,31.39-7.31,70.91,70.91,0,0,1,58.39,30.7c1,1.43,7.65,13.33,20.84,13.17a22.85,22.85,0,0,0,8.68-1.68l.31-.13,0-.34a96.42,96.42,0,0,1,9.72-33.89A97.42,97.42,0,0,1,374,54.62l.21-.32Z"/>
      </g>
    </g>
  </g>
</svg>
